<svg xmlns="http://www.w3.org/2000/svg" viewBox="3.0 3.0 63.0 88.0" width="63.0mm" height="88.0mm"><clipPath id="cut-19-cyan"><rect x="3.0" y="3.0" width="63.0" height="88.0" rx="5.0"/></clipPath><g clip-path="url(#cut-19-cyan)"><defs><linearGradient id="gold-19-cyan" x1="0%" y1="0%" x2="100%" y2="100%">
        <stop offset="0%" stop-color="#EFD68E"/>
        <stop offset="50%" stop-color="#D8B24C"/>
        <stop offset="100%" stop-color="#EFD68E"/>
    </linearGradient></defs><rect x="0" y="0" width="69.0" height="94.0" fill="#F6F1E4"/><clipPath id="content-clip-19-cyan"><rect x="7.0" y="7.0" width="55.0" height="80.0" rx="2.2"/></clipPath><g clip-path="url(#content-clip-19-cyan)"><rect x="0" y="0" width="69.0" height="94.0" fill="#F6F1E4"/><g transform="translate(34.5,11.3) scale(0.3)"><g fill="none" stroke="#00AEC0" stroke-width="1.7" stroke-linecap="round" stroke-linejoin="round"><circle cx="0" cy="0" r="9.4" fill="none"/></g><g fill="#00AEC0" stroke="none" stroke-width="1.6" stroke-linecap="round" stroke-linejoin="round"><rect x="-4.6" y="-4.6" width="3" height="9.2" rx="1.2"/><rect x="1.6" y="-4.6" width="3" height="9.2" rx="1.2"/></g></g><g transform="rotate(180 34.5 47.0)"><g transform="translate(34.5,11.3) scale(0.3)"><g fill="none" stroke="#00AEC0" stroke-width="1.7" stroke-linecap="round" stroke-linejoin="round"><circle cx="0" cy="0" r="9.4" fill="none"/></g><g fill="#00AEC0" stroke="none" stroke-width="1.6" stroke-linecap="round" stroke-linejoin="round"><rect x="-4.6" y="-4.6" width="3" height="9.2" rx="1.2"/><rect x="1.6" y="-4.6" width="3" height="9.2" rx="1.2"/></g></g></g><text x="34.5" y="47.0" font-family="'Arial Black', 'Helvetica Neue', Arial, sans-serif" font-size="40" font-weight="900" fill="#00AEC0" text-anchor="middle" dominant-baseline="central">19</text><g transform=""><rect x="8.2" y="8.2" width="12.8" height="15.2" rx="3.2" fill="#00AEC0" stroke="#D8B24C" stroke-width="0.9"/><text x="14.6" y="15.399999999999999" font-family="'Arial Black', 'Helvetica Neue', Arial, sans-serif" font-size="8.6" font-weight="900" fill="#FFFFFF" text-anchor="middle" dominant-baseline="central">19</text></g><g transform="rotate(180 54.4 78.2)"><rect x="48.0" y="70.60000000000001" width="12.8" height="15.2" rx="3.2" fill="#00AEC0" stroke="#D8B24C" stroke-width="0.9"/><text x="54.4" y="77.8" font-family="'Arial Black', 'Helvetica Neue', Arial, sans-serif" font-size="8.6" font-weight="900" fill="#FFFFFF" text-anchor="middle" dominant-baseline="central">19</text></g></g></g><rect x="3.0" y="3.0" width="63.0" height="88.0" rx="5.0" fill="none" stroke="#00000022" stroke-width="0.4"/></svg>